<svg xmlns="http://www.w3.org/2000/svg" viewBox="0 0 190 45"><title>builtin-logo</title><path d="M29.88,30.73v.81a1.47,1.47,0,0,1-.44,1.16,1.69,1.69,0,0,1-1.16.38,1.75,1.75,0,0,1-1.14-.41,1.42,1.42,0,0,1-.49-1.13v-18a1.33,1.33,0,0,1,.48-1.09,1.81,1.81,0,0,1,2.27,0,1.33,1.33,0,0,1,.48,1.09v7.11a5,5,0,0,1,4.67-2.42,6,6,0,0,1,4.77,2.05,7.94,7.94,0,0,1,1.76,5.38,10.14,10.14,0,0,1-.41,2.89A8,8,0,0,1,39.47,31a5.58,5.58,0,0,1-2,1.67,5.84,5.84,0,0,1-2.73.63A5.12,5.12,0,0,1,29.88,30.73Zm5.69,0a3.19,3.19,0,0,0,1.11-.89,5.29,5.29,0,0,0,.7-1.29,7.14,7.14,0,0,0,.38-1.44,8.73,8.73,0,0,0,.11-1.46,8.63,8.63,0,0,0-.19-1.86,7.17,7.17,0,0,0-.63-1.67,3.2,3.2,0,0,0-1.23-1.27A3.57,3.57,0,0,0,34,20.42a3.82,3.82,0,0,0-1.88.45,3.29,3.29,0,0,0-1.27,1.21,6,6,0,0,0-.69,1.69,8.14,8.14,0,0,0-.23,1.95,7.07,7.07,0,0,0,.94,4A3.57,3.57,0,0,0,34,31.11,3.37,3.37,0,0,0,35.57,30.77Z" style="fill:#141115"/><path d="M47.48,33a4.83,4.83,0,0,1-1.67-1,4.39,4.39,0,0,1-1.17-1.76,7.12,7.12,0,0,1-.42-2.54V20a1.43,1.43,0,0,1,.47-1.14,1.71,1.71,0,0,1,1.14-.4,1.67,1.67,0,0,1,1.12.4A1.4,1.4,0,0,1,47.42,20v7.7a3.61,3.61,0,0,0,.82,2.54,2.81,2.81,0,0,0,2.16.87,3.57,3.57,0,0,0,2.71-1.22,4.67,4.67,0,0,0,1.17-3.24V20a1.4,1.4,0,0,1,.48-1.13,1.62,1.62,0,0,1,1.13-.41,1.66,1.66,0,0,1,1.13.4A1.43,1.43,0,0,1,57.49,20V31.58A1.36,1.36,0,0,1,57,32.7a1.75,1.75,0,0,1-1.14.39,1.72,1.72,0,0,1-1.11-.38,1.3,1.3,0,0,1-.47-1.07v-.85a4.16,4.16,0,0,1-1.87,1.86,6.24,6.24,0,0,1-2.91.65A6.07,6.07,0,0,1,47.48,33Z" style="fill:#141115"/><path d="M61.86,14.89a1.74,1.74,0,0,1-.53-1.34,1.73,1.73,0,0,1,.53-1.33,2,2,0,0,1,1.41-.52,1.94,1.94,0,0,1,1.41.52,1.77,1.77,0,0,1,.53,1.33,1.75,1.75,0,0,1-.54,1.34,2.19,2.19,0,0,1-2.81,0Zm.26,17.78a1.52,1.52,0,0,1-.46-1.18V20.05a1.48,1.48,0,0,1,.49-1.17,1.67,1.67,0,0,1,1.14-.42,1.64,1.64,0,0,1,1.12.42,1.5,1.5,0,0,1,.48,1.17V31.49a1.51,1.51,0,0,1-.49,1.17,1.7,1.7,0,0,1-1.15.43A1.63,1.63,0,0,1,62.12,32.67Z" style="fill:#141115"/><path d="M69.38,32.67a1.49,1.49,0,0,1-.47-1.18V13.67a1.47,1.47,0,0,1,.48-1.17,1.64,1.64,0,0,1,1.14-.43,1.6,1.6,0,0,1,1.12.43,1.48,1.48,0,0,1,.49,1.17V31.49a1.51,1.51,0,0,1-.49,1.17,1.68,1.68,0,0,1-1.15.43A1.59,1.59,0,0,1,69.38,32.67Z" style="fill:#141115"/><path d="M78.46,32.07a4.6,4.6,0,0,1-1.08-3.26V20.68H75.75a1.18,1.18,0,0,1-.86-.3,1.06,1.06,0,0,1-.31-.75,1,1,0,0,1,.3-.73,1.11,1.11,0,0,1,.85-.3h1.65l.44-4a1.54,1.54,0,0,1,.51-1,1.52,1.52,0,0,1,1.07-.39,1.23,1.23,0,0,1,.86.3,1.16,1.16,0,0,1,.33.91V18.6h2.56a1.14,1.14,0,0,1,.85.3,1.07,1.07,0,0,1,.28.76,1,1,0,0,1-.28.74,1.13,1.13,0,0,1-.85.28H80.59v7.37a6,6,0,0,0,.15,1.46,1.67,1.67,0,0,0,.51.91,1.37,1.37,0,0,0,1,.33h.14l1.07-.08h.1a1.26,1.26,0,0,1,.68.19,1.09,1.09,0,0,1,.42.46,1.21,1.21,0,0,1,.14.6,1.79,1.79,0,0,1-.05.42.87.87,0,0,1-.18.31,2,2,0,0,1-.26.24,1.5,1.5,0,0,1-.36.16l-.42.1a3.14,3.14,0,0,1-.48.06l-.5,0H81.39A3.78,3.78,0,0,1,78.46,32.07Z" style="fill:#141115"/><path d="M87.73,14.89a1.74,1.74,0,0,1-.53-1.34,1.73,1.73,0,0,1,.53-1.33,2,2,0,0,1,1.41-.52,1.94,1.94,0,0,1,1.41.52,1.77,1.77,0,0,1,.53,1.33,1.75,1.75,0,0,1-.54,1.34,2.19,2.19,0,0,1-2.81,0ZM88,32.67a1.52,1.52,0,0,1-.46-1.18V20.05A1.48,1.48,0,0,1,88,18.88a1.67,1.67,0,0,1,1.14-.42,1.64,1.64,0,0,1,1.12.42,1.49,1.49,0,0,1,.47,1.17V31.49a1.48,1.48,0,0,1-.49,1.17,1.66,1.66,0,0,1-1.15.43A1.61,1.61,0,0,1,88,32.67Z" style="fill:#141115"/><path d="M95.17,32.69a1.4,1.4,0,0,1-.47-1.14V20a1.38,1.38,0,0,1,.48-1.11,1.71,1.71,0,0,1,1.14-.4,1.75,1.75,0,0,1,1.13.38,1.34,1.34,0,0,1,.47,1.08v.82a4.12,4.12,0,0,1,1.84-1.85,6.17,6.17,0,0,1,2.9-.64,6.09,6.09,0,0,1,2,.33,5,5,0,0,1,1.69,1,4.51,4.51,0,0,1,1.18,1.76,7.06,7.06,0,0,1,.42,2.53v7.69a1.41,1.41,0,0,1-.48,1.14,1.73,1.73,0,0,1-1.14.4,1.66,1.66,0,0,1-1.12-.4,1.43,1.43,0,0,1-.47-1.14V23.83a3.51,3.51,0,0,0-.83-2.53,2.87,2.87,0,0,0-2.18-.88,3.53,3.53,0,0,0-2.7,1.23,4.67,4.67,0,0,0-1.14,3.24v6.66a1.4,1.4,0,0,1-.48,1.13,1.69,1.69,0,0,1-1.13.41A1.71,1.71,0,0,1,95.17,32.69Z" style="fill:#141115"/><path d="M148.82,15.88c-.45-.15-.91-.3-1.36-.43l.21-.93c1-5,.35-9-1.95-10.36s-5.81.06-9.46,3.23q-.54.47-1,1l-.7-.64c-3.82-3.4-7.65-4.82-9.95-3.49s-2.86,5.06-1.93,9.8c.09.47.2.94.31,1.41-.54.15-1.06.31-1.56.49-4.48,1.56-7.34,4-7.34,6.54s3.07,5.26,7.73,6.85c.38.13.76.25,1.15.36-.13.5-.24,1-.34,1.51-.88,4.66-.19,8.36,2,9.62s6.08,0,9.79-3.28c.3-.25.59-.52.89-.81.37.36.75.71,1.14,1,3.59,3.1,7.14,4.35,9.34,3.07s3-5.28,2.05-10.12c-.07-.37-.16-.75-.25-1.13l.78-.25c4.85-1.6,8-4.2,8-6.86S153.39,17.45,148.82,15.88ZM137.45,8.75c3.12-2.72,6-3.79,7.37-3s2,4.11,1.08,8.43c-.06.28-.13.56-.19.84a41.39,41.39,0,0,0-5.66-.89,42.41,42.41,0,0,0-3.58-4.47ZM126.53,24.63q.57,1.11,1.2,2.19c.42.74.87,1.46,1.32,2.17a37.75,37.75,0,0,1-3.89-.62A39,39,0,0,1,126.53,24.63Zm0-4.25q-.8-1.87-1.35-3.66c1.21-.27,2.5-.49,3.84-.66-.45.7-.88,1.41-1.3,2.14S126.91,19.64,126.53,20.38Zm1,2.13c.55-1.16,1.15-2.3,1.8-3.41h0c.64-1.12,1.32-2.21,2.05-3.27,1.25-.09,2.54-.14,3.85-.14s2.6.05,3.86.14c.71,1.06,1.39,2.15,2,3.26s1.25,2.24,1.82,3.39c-.57,1.16-1.17,2.31-1.82,3.43h0c-.64,1.11-1.32,2.2-2,3.27-1.25.09-2.55.14-3.87.14s-2.6,0-3.83-.12c-.73-1.07-1.42-2.17-2.07-3.28S128,23.67,127.49,22.51Zm15.17,4.3c.42-.74.83-1.49,1.22-2.24a37.25,37.25,0,0,1,1.42,3.72,38.87,38.87,0,0,1-3.94.67C141.8,28.25,142.24,27.53,142.66,26.81Zm1.21-6.43c-.4-.74-.8-1.47-1.22-2.2s-.84-1.42-1.29-2.11a38.67,38.67,0,0,1,3.86.67A38.18,38.18,0,0,1,143.87,20.38Zm-8.66-9.44c.83.9,1.67,1.91,2.49,3-1.67-.08-3.34-.08-5,0A38.62,38.62,0,0,1,135.21,10.94Zm-9.75-5.16c1.42-.82,4.55.35,7.85,3.28l.63.58a44,44,0,0,0-3.6,4.46,44.6,44.6,0,0,0-5.65.88c-.1-.43-.2-.87-.29-1.3C123.61,9.61,124.14,6.55,125.46,5.78ZM123.4,27.93c-.35-.1-.7-.21-1-.33A15.38,15.38,0,0,1,117.42,25a3.73,3.73,0,0,1-1.58-2.52c0-1.54,2.3-3.5,6.13-4.84.48-.16,1-.32,1.46-.45a43.14,43.14,0,0,0,2.06,5.34A44.43,44.43,0,0,0,123.4,27.93Zm9.79,8.23a15.16,15.16,0,0,1-4.73,3h0a3.75,3.75,0,0,1-3,.11c-1.33-.77-1.89-3.74-1.13-7.73.09-.47.19-.94.31-1.4a43.54,43.54,0,0,0,5.7.83A43.33,43.33,0,0,0,134,35.42C133.74,35.68,133.47,35.92,133.19,36.16Zm2.07-2c-.86-.92-1.71-1.95-2.55-3,.81,0,1.64,0,2.48,0s1.71,0,2.55-.05A36.72,36.72,0,0,1,135.26,34.12Zm11,2.51a3.75,3.75,0,0,1-1.38,2.63c-1.34.77-4.19-.23-7.26-2.88-.35-.3-.71-.62-1.07-1a41,41,0,0,0,3.55-4.5A42.6,42.6,0,0,0,145.8,30c.09.35.16.69.23,1A15.36,15.36,0,0,1,146.23,36.63Zm1.54-9h0l-.72.22a40.92,40.92,0,0,0-2.14-5.36A40.6,40.6,0,0,0,147,17.19l1.26.4c3.91,1.35,6.3,3.34,6.3,4.87S152,26.22,147.77,27.61Z" style="fill:#53c1de"/><path d="M139,22.46a3.78,3.78,0,1,1-3.78-3.77A3.78,3.78,0,0,1,139,22.46Z" style="fill:#53c1de"/><path d="M3.46,23.82a1.12,1.12,0,0,1-.28-.16,1.14,1.14,0,0,1-.23-.2,1.55,1.55,0,0,1-.19-.24A2.15,2.15,0,0,1,2.62,23a1.29,1.29,0,0,1-.08-.28,1.39,1.39,0,0,1,0-.3A1.59,1.59,0,0,1,2.57,22a1.73,1.73,0,0,1,.2-.41,2,2,0,0,1,.35-.37,2.4,2.4,0,0,1,.5-.28l12.29-5.17.13-.05h.13a.77.77,0,0,1,.25,0,.7.7,0,0,1,.24.13,1.24,1.24,0,0,1,.22.18,1.3,1.3,0,0,1,.18.23l.15.25a1.31,1.31,0,0,1,.09.28,1.41,1.41,0,0,1,0,.28.88.88,0,0,1-.58.87L6,22.4l10.83,4.7a.77.77,0,0,1,.45.79,1.72,1.72,0,0,1-.31,1,.89.89,0,0,1-.73.47.61.61,0,0,1-.25-.06Z" style="fill:#e0e6ed"/><path d="M160.82,33.87a1,1,0,0,1-.37-.83,1.27,1.27,0,0,1,.08-.44l6.95-20.93a1.14,1.14,0,0,1,1.18-.85,1.23,1.23,0,0,1,.84.31,1,1,0,0,1,.37.83,1.6,1.6,0,0,1-.07.45l-7,20.94a1.11,1.11,0,0,1-1.11.83A1.26,1.26,0,0,1,160.82,33.87Z" style="fill:#e0e6ed"/><path d="M173.91,31.6l-.13,0a.88.88,0,0,1-.72-.46,1.79,1.79,0,0,1-.3-1,.77.77,0,0,1,.45-.8L184,24.68l-10.8-4.49a.87.87,0,0,1-.59-.85,1.24,1.24,0,0,1,.11-.49,1.6,1.6,0,0,1,.63-.78.83.83,0,0,1,.44-.13.65.65,0,0,1,.26.06l12.29,5.17a1.82,1.82,0,0,1,.83.63,1.47,1.47,0,0,1,.28.86,1.53,1.53,0,0,1-.25.85,1.61,1.61,0,0,1-.7.59L174,31.56Z" style="fill:#e0e6ed"/></svg>